<?xml version="1.0" encoding="UTF-8"?>
<svg width="47.774" height="47.774" version="1.1" xml:space="preserve" xmlns="http://www.w3.org/2000/svg" xmlns:xlink="http://www.w3.org/1999/xlink">
  <defs><linearGradient x1="253.84" x2="260.86" y1="165.03" y2="176.51" gradientUnits="userSpaceOnUse"><stop stop-color="#f63" offset="0"/><stop stop-color="#da3600" offset="1"/></linearGradient></defs>
  <g transform="matrix(1.6285 0 0 -1.6285 -.16995 362.92)">
    <g transform="scale(.1)">
      <path transform="matrix(6.1405 0 0 -6.1405 1.0436 2228.5)" d="m23.887 0.03125c-13.14 0-23.855 10.715-23.855 23.855 0 13.14 10.716 23.857 23.855 23.857 13.14 0 23.857-10.718 23.857-23.857 0-4.9268-1.5061-9.5122-4.082-13.32h-4.0312l-2.9805-2.9824v-3.8359c-3.6947-2.352-8.0753-3.7168-12.764-3.7168zm3.4316 4.7441c0.71941-0.22695 1.6099 0.31645 1.4902 1.2344l-2.3027 12.549h4.3438c0.92114 0.003358 1.4472 1.0338 0.94727 1.7812l-12.129 19.457c-0.65243 1.0666-2.3402 0.43487-2.0938-0.81836l3.3047-12.627-5.1504 0.087891c-0.89064 0.016402-1.4393-0.94781-0.99805-1.7129l11.969-19.453c0.15812-0.26197 0.37934-0.4224 0.61914-0.49805z" fill="#f5c600" fill-rule="evenodd"/>
      <path d="m147.72 2228.4c28.789 0 55.68-8.3807 78.367-22.824v-23.561l18.312-18.312h24.746c15.817-23.384 25.068-51.546 25.068-81.799 0-80.685-65.807-146.49-146.49-146.49-80.686 0-146.49 65.808-146.49 146.49 0 80.688 65.808 146.5 146.49 146.5z" fill="none" stroke="#fff200" stroke-miterlimit="2.6131" stroke-width=".3721"/>
      
      
    </g>
  </g>
</svg>
